<?xml version="1.0" standalone="no"?>
<!DOCTYPE svg PUBLIC "-//W3C//DTD SVG 20010904//EN"
 "http://www.w3.org/TR/2001/REC-SVG-20010904/DTD/svg10.dtd">
<svg version="1.0" xmlns="http://www.w3.org/2000/svg"
 width="135.000000pt" height="156.000000pt" viewBox="0 0 135.000000 156.000000"
 preserveAspectRatio="xMidYMid meet">

<g transform="translate(0.000000,156.000000) scale(0.100000,-0.100000)"
fill="#000000" stroke="none">
<path d="M693 1363 c9 -2 25 -2 35 0 9 3 1 5 -18 5 -19 0 -27 -2 -17 -5z"/>
<path d="M651 1344 c0 -11 3 -14 6 -6 3 7 2 16 -1 19 -3 4 -6 -2 -5 -13z"/>
<path d="M717 1333 c-4 -3 -17 -7 -30 -9 -12 -1 -25 -3 -29 -3 -21 -2 -5 -21
18 -21 29 0 64 16 64 30 0 11 -14 13 -23 3z"/>
<path d="M608 1194 c-117 -25 -203 -70 -191 -100 7 -20 31 -17 38 5 3 10 15
27 26 37 20 18 20 18 9 -10 -16 -43 6 -76 70 -109 50 -26 63 -28 140 -25 69 2
96 8 142 31 81 40 123 114 83 147 -21 17 -12 24 14 10 12 -6 21 -17 21 -25 0
-8 5 -15 11 -15 7 0 17 -7 24 -16 10 -15 12 -13 13 14 0 24 -5 32 -26 41 -84
33 -256 40 -374 15z m254 -11 c40 -36 9 -105 -47 -105 -33 0 -65 29 -65 59 0
22 -3 24 -32 18 -44 -10 -48 -13 -48 -36 0 -25 -43 -69 -67 -69 -23 0 -93 49
-93 65 0 7 14 25 31 39 28 24 38 26 129 26 55 0 102 4 105 10 10 16 67 12 87
-7z m-108 -154 c-21 -24 -77 -22 -82 2 -2 12 5 14 31 11 19 -2 38 1 42 7 3 6
11 9 16 5 6 -4 3 -14 -7 -25z"/>
<path d="M805 1161 c3 -5 1 -12 -5 -16 -16 -10 -12 -22 10 -28 13 -3 21 1 25
14 8 23 -1 39 -21 39 -8 0 -13 -4 -9 -9z"/>
<path d="M586 1124 c-9 -24 12 -44 24 -24 5 8 8 19 7 24 -6 17 -24 17 -31 0z"/>
<path d="M959 1075 c-10 -27 -12 -42 -5 -38 6 4 5 -1 -3 -10 -12 -15 -11 -17
10 -17 21 0 66 19 47 20 -4 0 -3 12 2 28 9 25 9 26 -5 8 -8 -11 -15 -24 -15
-29 0 -4 -5 -5 -11 -1 -7 4 -9 21 -5 45 3 22 5 39 4 39 -2 0 -10 -20 -19 -45z"/>
<path d="M414 1058 c-10 -15 1 -19 27 -9 13 5 22 10 19 11 -25 7 -41 7 -46 -2z"/>
<path d="M435 989 c16 -31 44 -37 53 -10 3 9 -2 11 -18 6 -17 -5 -23 -2 -27
14 -3 12 -9 21 -14 21 -5 0 -2 -14 6 -31z"/>
<path d="M739 903 c-17 -4 -32 -37 -21 -47 3 -3 13 -6 23 -6 10 0 20 -8 22
-17 4 -14 5 -13 6 3 0 12 7 24 15 27 20 8 8 47 -13 46 -9 -1 -23 -3 -32 -6z"/>
<path d="M863 795 c30 -59 32 -62 38 -37 l5 27 24 -38 c17 -29 25 -35 32 -25
7 9 8 7 3 -8 -7 -26 26 -70 58 -76 40 -8 65 7 60 36 -3 16 -10 23 -19 19 -21
-8 -48 21 -85 86 -18 31 -34 50 -36 43 -3 -6 -10 -9 -15 -6 -6 4 -17 -1 -24
-11 -13 -17 -14 -17 -33 6 -11 13 -20 30 -21 37 0 6 -4 12 -10 12 -5 0 5 -29
23 -65z"/>
<path d="M680 820 c0 -34 -21 -69 -38 -62 -15 5 -15 4 -2 -11 14 -15 16 -15
33 5 15 18 25 88 12 88 -3 0 -5 -9 -5 -20z"/>
<path d="M235 820 c-3 -6 1 -7 9 -4 18 7 21 14 7 14 -6 0 -13 -4 -16 -10z"/>
<path d="M484 812 c3 -5 -39 -8 -93 -7 l-98 2 11 -23 c11 -23 13 -23 144 -19
85 3 140 1 153 -6 19 -10 20 -8 17 23 -3 29 -7 33 -35 36 -18 2 -33 -1 -33 -6
0 -5 -11 -9 -25 -9 -13 0 -22 3 -19 8 3 5 -2 9 -11 9 -9 0 -14 -4 -11 -8z"/>
<path d="M803 813 c-13 -2 -23 -9 -23 -14 0 -14 24 -11 46 6 19 15 16 16 -23
8z"/>
<path d="M1116 782 c11 -7 11 -30 -1 -70 -7 -22 -5 -23 38 -21 33 2 44 6 40
16 -4 10 -15 12 -34 8 -28 -6 -28 -6 -19 26 7 24 6 35 -3 41 -15 10 -36 10
-21 0z"/>
<path d="M1216 777 c3 -10 9 -15 12 -12 3 3 0 11 -7 18 -10 9 -11 8 -5 -6z"/>
<path d="M157 773 c-7 -11 10 -40 18 -31 4 4 3 14 -3 24 -5 9 -12 12 -15 7z"/>
<path d="M245 749 c-21 -19 -32 -36 -27 -41 14 -14 40 1 46 28 4 13 13 24 21
24 8 0 15 5 15 10 0 18 -19 11 -55 -21z"/>
<path d="M105 740 l-20 -9 20 0 c11 0 27 4 35 9 13 9 13 10 0 9 -8 0 -24 -4
-35 -9z"/>
<path d="M180 730 c-12 -7 -12 -12 -3 -21 10 -10 14 -9 19 5 4 9 5 19 2 21 -2
2 -10 0 -18 -5z"/>
<path d="M776 715 c3 -14 1 -32 -6 -40 -6 -8 -8 -20 -4 -26 4 -8 3 -9 -4 -5
-7 4 -12 1 -12 -8 0 -8 6 -17 13 -20 10 -5 10 -7 0 -12 -8 -3 -13 -25 -13 -53
l0 -48 -87 -53 c-175 -105 -186 -116 -143 -155 11 -10 22 -26 25 -36 4 -11 12
-19 19 -19 13 0 96 -96 96 -111 0 -16 47 -10 168 20 64 17 138 33 164 36 57 8
93 42 85 78 -13 47 -55 93 -137 149 -47 32 -86 64 -88 72 -2 8 4 25 12 38 13
21 13 28 -3 78 -11 30 -24 54 -31 52 -6 -1 -9 1 -6 6 3 5 -4 16 -15 25 -10 9
-19 26 -19 37 0 11 -5 20 -10 20 -6 0 -8 -11 -4 -25z m24 -69 c0 -3 -4 -8 -10
-11 -5 -3 -10 -1 -10 4 0 6 5 11 10 11 6 0 10 -2 10 -4z m-25 -76 c3 -5 1 -10
-4 -10 -6 0 -11 5 -11 10 0 6 2 10 4 10 3 0 8 -4 11 -10z m26 -45 c3 2 5 -5 5
-16 0 -19 -1 -19 -18 3 -10 13 -18 28 -17 33 0 6 6 2 13 -7 7 -10 15 -16 17
-13z"/>
<path d="M1211 714 c0 -11 3 -14 6 -6 3 7 2 16 -1 19 -3 4 -6 -2 -5 -13z"/>
<path d="M910 706 c0 -7 -7 -19 -15 -26 -8 -7 -15 -24 -15 -39 1 -22 2 -24 11
-8 5 9 17 17 24 17 10 0 15 11 15 35 0 19 -4 35 -10 35 -5 0 -10 -6 -10 -14z"/>
<path d="M154 674 c-18 -14 -18 -15 4 -4 12 6 22 13 22 15 0 8 -5 6 -26 -11z"/>
<path d="M652 644 c2 -20 10 -30 31 -35 15 -4 27 -5 27 -2 0 14 -23 44 -41 54
-19 9 -20 8 -17 -17z"/>
<path d="M911 633 c0 -6 -4 -20 -7 -30 -5 -14 -4 -15 5 -7 7 7 11 20 8 30 -3
11 -5 14 -6 7z"/>
</g>
</svg>
